<?xml version="1.0" standalone="no"?>
<!DOCTYPE svg PUBLIC "-//W3C//DTD SVG 20010904//EN"
 "http://www.w3.org/TR/2001/REC-SVG-20010904/DTD/svg10.dtd">
<svg version="1.0" xmlns="http://www.w3.org/2000/svg"
 width="1500.000000pt" height="428.000000pt" viewBox="0 0 1500.000000 428.000000"
 preserveAspectRatio="xMidYMid meet">

<g transform="translate(0.000000,428.000000) scale(0.100000,-0.100000)"
fill="#000000" stroke="none">
<path d="M1750 2200 l0 -1580 4200 0 4200 0 0 50 0 50 -4150 0 -4150 0 0 1480
0 1480 5650 0 5650 0 0 -1480 0 -1480 -290 0 -290 0 0 -50 0 -50 340 0 340 0
0 1580 0 1580 -5750 0 -5750 0 0 -1580z"/>
<path d="M3670 2145 l0 -555 120 0 120 0 0 239 0 239 33 43 c63 82 150 103
209 50 l33 -29 5 -269 5 -268 120 0 120 0 0 300 c-1 263 -3 307 -19 353 -36
105 -111 156 -230 156 -89 -1 -156 -27 -221 -86 l-55 -50 0 216 0 216 -120 0
-120 0 0 -555z"/>
<path d="M6772 2593 c2 -60 6 -107 11 -105 4 1 57 2 117 2 l110 0 0 105 0 105
-120 0 -121 0 3 -107z"/>
<path d="M7182 2148 l3 -553 103 -3 102 -3 0 65 0 65 53 -53 c62 -63 121 -86
217 -86 128 0 230 54 301 159 52 77 73 149 72 251 0 239 -147 414 -348 413
-90 0 -160 -29 -215 -89 -22 -24 -42 -44 -45 -44 -2 0 -3 97 -2 215 l2 215
-123 0 -122 0 2 -552z m485 41 c87 -33 141 -156 113 -259 -31 -117 -143 -178
-248 -135 -84 36 -114 87 -111 192 2 66 6 81 33 121 51 76 139 109 213 81z"/>
<path d="M10270 2596 l0 -105 120 -3 120 -3 0 108 0 107 -120 0 -120 0 0 -104z"/>
<path d="M2650 2565 l0 -105 165 0 165 0 2 -432 3 -433 122 -3 123 -3 2 433 3
433 163 3 162 2 0 105 0 105 -455 0 -455 0 0 -105z"/>
<path d="M5900 2130 l0 -540 385 0 385 0 0 110 0 110 -260 0 -260 0 0 430 0
430 -125 0 -125 0 0 -540z"/>
<path d="M4925 2403 c-16 -2 -55 -11 -85 -19 -241 -67 -356 -350 -240 -590 37
-76 101 -136 187 -177 57 -26 81 -31 169 -35 125 -6 211 17 295 77 52 37 118
115 107 127 -3 2 -47 16 -97 31 l-92 26 -32 -31 c-102 -98 -262 -75 -313 45
-29 67 -44 63 280 63 259 0 295 2 300 16 11 28 6 98 -9 159 -44 166 -165 277
-335 304 -65 11 -80 11 -135 4z m129 -187 c42 -18 85 -73 93 -120 l6 -36 -173
0 -173 0 6 37 c17 105 136 163 241 119z"/>
<path d="M9050 2404 c-100 -16 -154 -30 -217 -59 -40 -19 -73 -39 -73 -45 0
-6 15 -41 34 -79 l35 -68 80 40 c73 36 89 40 158 41 56 1 87 -4 109 -16 36
-20 64 -71 64 -118 0 -30 -2 -32 -27 -25 -107 28 -252 21 -334 -17 -113 -52
-159 -118 -159 -228 0 -79 26 -136 82 -185 114 -97 313 -84 432 28 21 20 40
37 41 37 2 0 6 -15 9 -33 14 -75 103 -113 215 -91 l31 7 0 97 c0 92 -1 99 -24
113 -24 16 -24 19 -28 194 -5 202 -15 239 -84 308 -73 73 -224 116 -344 99z
m146 -455 l44 -11 0 -49 c0 -41 -5 -53 -33 -82 -77 -77 -212 -75 -252 4 -28
53 0 112 65 138 34 13 122 13 176 0z"/>
<path d="M10940 2400 c-30 -4 -75 -13 -100 -20 -57 -15 -160 -67 -160 -80 0
-5 14 -41 31 -79 l31 -69 66 33 c37 19 90 39 117 45 65 15 147 4 181 -22 30
-24 54 -74 54 -114 0 -25 -2 -26 -32 -19 -108 26 -252 20 -329 -13 -106 -46
-163 -126 -163 -232 0 -73 17 -115 68 -168 50 -54 101 -75 191 -80 102 -5 178
21 246 84 52 50 59 52 59 23 0 -27 27 -72 51 -88 28 -17 100 -25 153 -17 l46
7 0 96 c0 88 -2 96 -24 114 -23 18 -24 24 -28 191 -3 153 -7 179 -27 223 -44
99 -126 159 -248 180 -85 16 -101 16 -183 5z m180 -453 c32 -11 35 -16 38 -53
9 -125 -209 -196 -282 -92 -34 48 -6 116 58 144 38 16 139 17 186 1z"/>
<path d="M12032 2399 c-78 -13 -144 -45 -188 -90 -21 -21 -41 -39 -44 -39 -3
0 -3 27 -2 60 l4 60 -111 0 -111 0 0 -400 0 -400 120 0 120 0 0 232 c0 229 0
232 25 274 50 85 167 123 220 70 39 -39 45 -86 45 -338 l0 -238 121 0 121 0
-4 313 c-5 346 -9 374 -71 437 -55 56 -141 77 -245 59z"/>
<path d="M8555 2388 c-46 -16 -103 -62 -138 -109 l-32 -44 -3 78 -3 77 -109 0
-110 0 0 -400 0 -400 120 0 120 0 0 244 0 244 37 32 c47 42 92 60 167 68 l61
7 3 108 3 107 -43 -1 c-24 0 -56 -5 -73 -11z"/>
<path d="M10059 2390 c-44 -13 -104 -59 -140 -106 l-34 -46 -3 76 -3 76 -109
0 -110 0 0 -400 0 -400 120 0 120 0 0 244 0 244 37 32 c47 42 92 60 167 68
l61 7 3 108 3 107 -43 -1 c-24 0 -55 -4 -69 -9z"/>
<path d="M6770 1990 l0 -400 120 0 120 0 0 400 0 400 -120 0 -120 0 0 -400z"/>
<path d="M10270 1990 l0 -400 120 0 120 0 0 400 0 400 -120 0 -120 0 0 -400z"/>
<path d="M11697 963 c-4 -3 -7 -107 -7 -230 0 -192 2 -223 15 -223 11 0 15 11
15 43 0 37 6 48 44 86 l44 43 67 -85 c36 -47 75 -87 86 -90 10 -3 19 -3 19 0
0 3 -31 45 -70 93 -38 48 -70 92 -70 98 0 6 30 38 66 71 49 45 62 61 47 61
-11 0 -64 -40 -119 -90 -54 -49 -102 -90 -106 -90 -5 0 -8 72 -8 160 0 146 -4
173 -23 153z"/>
<path d="M10460 725 l0 -215 133 0 c110 0 138 3 167 19 70 37 73 142 5 182
l-33 20 29 29 c22 21 29 38 29 67 0 86 -51 113 -215 113 l-115 0 0 -215z m275
160 c34 -33 34 -83 -1 -116 -23 -22 -35 -24 -135 -27 l-109 -4 0 86 0 86 110
0 c104 0 112 -1 135 -25z m13 -195 c31 -19 33 -24 30 -67 -5 -73 -32 -87 -174
-91 l-114 -4 0 91 0 91 113 0 c95 0 117 -3 145 -20z"/>
<path d="M10970 812 c-19 -9 -45 -33 -58 -52 -20 -30 -23 -45 -20 -102 3 -61
7 -71 38 -103 110 -114 295 -25 277 133 -12 112 -134 176 -237 124z m150 -31
c89 -62 70 -212 -30 -242 -56 -17 -103 -5 -139 37 -26 29 -31 43 -31 85 0 27
7 63 14 78 35 67 122 86 186 42z"/>
<path d="M11354 811 c-73 -44 -100 -126 -69 -206 40 -106 170 -135 255 -58 84
75 68 215 -31 265 -45 24 -116 23 -155 -1z m153 -27 c64 -40 74 -151 20 -210
-65 -72 -173 -52 -211 38 -53 127 77 244 191 172z"/>
<path d="M12059 815 c-33 -18 -52 -66 -39 -100 11 -30 48 -49 122 -65 61 -12
88 -30 88 -59 0 -54 -84 -77 -166 -46 -25 9 -48 15 -51 11 -13 -13 22 -36 70
-46 116 -26 210 40 167 119 -10 20 -78 51 -111 51 -32 0 -86 29 -92 49 -8 32
11 60 51 71 36 12 70 7 125 -15 12 -5 17 -2 17 8 0 34 -130 50 -181 22z"/>
</g>
</svg>
